<?xml version="1.0" standalone="no"?>
<!DOCTYPE svg PUBLIC "-//W3C//DTD SVG 20010904//EN"
 "http://www.w3.org/TR/2001/REC-SVG-20010904/DTD/svg10.dtd">
<svg version="1.0" xmlns="http://www.w3.org/2000/svg"
 width="2560.000000pt" height="602.000000pt" viewBox="0 0 2560.000000 602.000000"
 preserveAspectRatio="xMidYMid meet">

<g transform="translate(0.000000,602.000000) scale(0.100000,-0.100000)"
fill="#000000" stroke="none">
<path d="M2780 5994 c-19 -2 -78 -9 -130 -15 -606 -68 -1221 -350 -1672 -767
-549 -507 -875 -1151 -958 -1892 -14 -124 -14 -469 0 -601 109 -1028 732
-1923 1662 -2389 203 -101 263 -120 382 -120 113 1 161 11 255 57 291 144 396
522 219 795 -69 107 -126 152 -303 238 -253 124 -411 236 -585 416 -285 296
-451 642 -510 1064 -16 110 -13 388 5 504 84 553 399 1032 872 1325 657 407
1514 368 2132 -98 510 -383 796 -1017 743 -1643 -47 -545 -311 -1027 -739
-1350 -123 -92 -200 -138 -378 -224 -199 -96 -295 -192 -350 -351 -91 -259 30
-556 275 -675 101 -49 167 -62 287 -56 114 6 164 23 360 121 310 154 534 316
787 565 448 442 736 996 841 1617 143 840 -73 1682 -604 2355 -123 155 -372
397 -531 517 -432 323 -878 508 -1420 589 -100 15 -556 28 -640 18z"/>
<path d="M21960 3765 l0 -2225 450 0 450 0 1 478 0 477 285 268 c157 148 290
267 297 264 7 -3 251 -336 542 -741 l530 -735 538 -1 c295 0 537 3 537 6 0 3
-349 465 -776 1027 l-777 1021 59 55 c118 110 1420 1335 1464 1377 l45 44
-606 0 -607 0 -479 -447 c-263 -247 -602 -563 -752 -703 -150 -140 -277 -256
-282 -258 -5 -2 -9 204 -9 511 0 282 -3 805 -7 1160 l-6 647 -449 0 -448 0 0
-2225z"/>
<path d="M13611 5090 c-274 -27 -519 -97 -751 -216 -487 -251 -816 -693 -915
-1231 -25 -135 -30 -394 -11 -539 77 -581 418 -1059 946 -1324 268 -134 531
-197 865 -207 209 -6 326 3 520 42 736 147 1277 684 1411 1400 29 154 27 521
-4 665 -147 682 -625 1171 -1318 1350 -214 55 -527 80 -743 60z m328 -820
c272 -36 484 -152 633 -350 138 -181 206 -444 179 -691 -48 -447 -326 -751
-755 -825 -128 -23 -350 -15 -466 15 -294 77 -521 278 -619 548 -52 140 -64
226 -58 402 3 116 10 177 26 236 29 108 98 246 165 332 195 249 543 378 895
333z"/>
<path d="M9111 5079 c-609 -64 -1132 -415 -1390 -934 -249 -498 -253 -1094
-12 -1592 147 -303 359 -536 646 -713 317 -195 743 -293 1137 -262 381 31 686
149 891 346 32 31 60 56 63 56 11 0 3 -414 -10 -482 -28 -145 -87 -257 -196
-372 -110 -116 -257 -201 -430 -248 -78 -21 -105 -23 -320 -23 -203 0 -250 3
-345 22 -258 53 -461 150 -638 305 -37 33 -73 58 -80 55 -6 -3 -146 -134 -309
-291 l-297 -285 79 -75 c312 -298 747 -498 1244 -572 88 -13 169 -15 435 -11
304 4 333 6 436 29 390 90 727 284 951 549 178 210 290 438 356 727 l22 97 3
1843 3 1842 -450 0 -450 0 0 -195 c0 -107 -3 -195 -6 -195 -4 0 -32 22 -63 49
-129 111 -264 186 -442 245 -244 82 -554 113 -828 85z m576 -834 c347 -66 637
-300 708 -571 22 -84 22 -576 0 -673 -50 -219 -240 -418 -498 -521 -157 -63
-231 -75 -452 -74 -184 1 -208 3 -300 27 -328 88 -544 296 -631 608 -32 116
-44 344 -25 465 63 388 356 668 773 738 114 19 327 20 425 1z"/>
<path d="M16258 3078 l-3 -2013 -23 -57 c-27 -67 -80 -118 -151 -144 -39 -15
-92 -18 -373 -22 l-328 -3 0 -421 0 -420 433 5 c371 4 448 8 542 25 311 55
510 164 640 347 124 174 178 368 195 690 5 99 10 1045 10 2103 l0 1922 -470 0
-470 0 -2 -2012z"/>
<path d="M19390 5078 c-639 -54 -1175 -402 -1439 -933 -140 -281 -199 -563
-188 -895 16 -479 178 -857 500 -1167 269 -259 636 -429 1077 -498 138 -22
497 -31 626 -16 478 55 899 257 1202 575 40 42 72 80 72 85 0 7 -614 441 -625
441 -3 0 -36 -26 -73 -57 -213 -181 -425 -268 -711 -294 -410 -36 -807 111
-1021 380 -78 98 -130 216 -130 298 l0 33 1365 0 1365 0 0 144 c0 393 -56 676
-190 951 -273 564 -794 902 -1469 954 -152 12 -210 12 -361 -1z m505 -782
c224 -59 388 -170 494 -335 43 -67 91 -200 91 -252 l0 -29 -895 0 c-815 0
-895 1 -895 16 0 34 33 141 60 196 77 155 194 265 363 343 159 73 285 95 512
91 143 -3 186 -8 270 -30z"/>
<path d="M2855 4119 c-165 -24 -377 -111 -506 -208 -144 -109 -261 -249 -339
-406 -157 -317 -157 -673 0 -990 199 -401 618 -646 1065 -622 316 17 613 168
812 412 92 113 183 290 220 430 24 90 26 117 26 275 0 157 -2 185 -26 273 -87
324 -311 595 -609 737 -195 93 -432 129 -643 99z"/>
</g>
</svg>
