<?xml version="1.0" standalone="no"?>
<!DOCTYPE svg PUBLIC "-//W3C//DTD SVG 20010904//EN"
 "http://www.w3.org/TR/2001/REC-SVG-20010904/DTD/svg10.dtd">
<svg version="1.0" xmlns="http://www.w3.org/2000/svg"
 width="2508.000000pt" height="816.000000pt" viewBox="0 0 2508.000000 816.000000"
 preserveAspectRatio="xMidYMid meet">

<g transform="translate(0.000000,816.000000) scale(0.100000,-0.100000)"
fill="#000000" stroke="none">
<path d="M3020 8143 c-203 -19 -276 -28 -404 -54 -848 -168 -1582 -659 -2061
-1379 -372 -559 -543 -1180 -513 -1860 53 -1209 863 -2316 2025 -2768 389
-152 742 -216 1178 -216 775 1 1378 204 1925 648 99 80 320 301 399 399 300
372 491 846 566 1407 33 247 30 646 -7 884 l-12 76 -1438 0 -1438 0 0 -430 0
-430 1024 0 1023 0 -14 -87 c-43 -276 -144 -564 -261 -747 -163 -254 -457
-506 -767 -656 -301 -146 -620 -214 -1010 -213 -284 0 -472 29 -728 113 -556
183 -1021 584 -1291 1113 -333 653 -337 1443 -11 2102 331 670 941 1114 1695
1232 159 25 508 24 670 -1 420 -65 787 -231 1105 -500 l100 -85 300 300 300
299 -40 35 c-139 123 -261 220 -361 290 -509 357 -1112 539 -1759 533 -88 -1
-176 -3 -195 -5z"/>
<path d="M8307 5899 c-570 -55 -1099 -352 -1431 -803 -424 -575 -507 -1388
-210 -2059 161 -363 451 -688 798 -892 594 -349 1351 -378 1971 -75 695 341
1116 1027 1115 1820 -2 690 -321 1301 -874 1672 -394 264 -881 384 -1369 337z
m433 -805 c214 -44 390 -136 548 -288 105 -101 169 -185 232 -307 102 -198
144 -375 144 -614 0 -171 -17 -284 -65 -426 -135 -407 -453 -695 -864 -785
-109 -23 -321 -23 -430 0 -645 141 -1031 763 -909 1466 28 160 104 348 197
484 50 74 175 205 247 260 259 198 586 274 900 210z"/>
<path d="M17137 5899 c-329 -32 -678 -175 -972 -397 -87 -66 -266 -244 -345
-342 -383 -481 -530 -1099 -405 -1705 126 -604 543 -1138 1100 -1406 219 -105
416 -158 663 -181 431 -38 869 115 1147 401 27 28 58 51 68 51 19 0 19 -9 14
-262 -4 -179 -11 -290 -22 -348 -104 -550 -444 -849 -995 -876 -409 -20 -752
162 -987 523 -30 45 -65 107 -79 137 l-25 56 -32 -13 c-400 -163 -727 -304
-727 -315 0 -18 74 -163 130 -253 79 -127 158 -228 264 -338 308 -317 653
-496 1091 -567 147 -24 462 -24 628 0 446 64 789 233 1069 524 271 283 437
670 505 1182 15 112 17 328 20 2068 l4 1942 -421 0 -420 0 0 -165 c0 -141 -2
-165 -15 -165 -8 0 -49 34 -91 75 -280 277 -717 417 -1167 374z m458 -803
c145 -31 299 -102 413 -189 119 -92 248 -250 320 -393 42 -83 95 -241 118
-349 26 -124 27 -440 1 -567 -96 -473 -396 -809 -823 -919 -113 -29 -346 -32
-461 -6 -455 104 -781 446 -885 930 -31 145 -31 407 0 554 110 514 486 886
962 953 87 12 268 5 355 -14z"/>
<path d="M22896 5899 c-739 -78 -1355 -582 -1591 -1301 -177 -542 -143 -1133
95 -1627 196 -405 506 -715 912 -911 428 -207 950 -255 1423 -131 425 111 818
379 1094 745 l60 80 -317 211 c-174 116 -329 219 -343 229 l-27 17 -65 -83
c-129 -165 -294 -301 -456 -375 -279 -127 -653 -132 -935 -12 -192 82 -385
265 -502 476 -16 29 -26 54 -24 56 3 2 613 255 1356 562 l1351 559 -79 195
c-89 221 -138 317 -242 476 -398 607 -1013 907 -1710 834z m489 -798 c162 -43
322 -140 411 -249 52 -63 98 -148 85 -156 -18 -12 -1792 -746 -1801 -746 -15
0 -12 133 5 237 39 243 142 448 310 618 152 153 350 262 565 310 95 21 320 14
425 -14z"/>
</g>
</svg>
