<?xml version="1.0" standalone="no"?>
<!DOCTYPE svg PUBLIC "-//W3C//DTD SVG 20010904//EN"
 "http://www.w3.org/TR/2001/REC-SVG-20010904/DTD/svg10.dtd">
<svg version="1.0" xmlns="http://www.w3.org/2000/svg"
 width="500.000000pt" height="300.000000pt" viewBox="0 0 500.000000 300.000000"
 preserveAspectRatio="xMidYMid meet">

<g transform="translate(0.000000,300.000000) scale(0.100000,-0.100000)"
fill="#000000" stroke="none">
<path d="M2064 2805 c65 -64 127 -153 167 -238 32 -70 69 -204 69 -252 0 -18
3 -46 6 -62 l6 -29 66 17 c294 77 602 -100 688 -396 24 -85 22 -230 -5 -315
-60 -191 -214 -335 -412 -386 -88 -23 -230 -15 -319 18 -227 83 -371 288 -372
528 -1 160 48 283 160 400 l62 65 0 76 c0 70 -14 176 -24 187 -11 10 -116 -60
-183 -122 -126 -118 -201 -241 -244 -401 -30 -111 -30 -288 0 -400 72 -273
269 -483 540 -576 92 -32 102 -33 251 -34 149 0 159 2 250 33 124 43 215 98
307 186 174 165 255 353 255 591 0 135 -20 233 -72 344 -96 203 -300 379 -509
437 -57 16 -67 23 -107 75 -83 108 -205 199 -338 250 -83 32 -203 59 -262 59
l-34 0 54 -55z"/>
<path d="M2984 699 c-8 -14 11 -33 25 -25 16 10 13 36 -3 36 -8 0 -18 -5 -22
-11z"/>
<path d="M3430 504 c0 -160 3 -205 13 -202 8 3 14 39 17 112 5 103 6 109 33
132 28 24 84 32 122 18 32 -13 45 -59 45 -164 0 -60 4 -100 10 -100 6 0 10 42
10 108 0 128 -15 164 -77 181 -43 12 -103 0 -123 -24 -24 -28 -30 -15 -30 65
0 47 -4 80 -10 80 -6 0 -10 -75 -10 -206z"/>
<path d="M3800 635 c0 -43 -1 -45 -30 -45 -39 0 -39 -18 0 -22 l30 -3 3 -113
c2 -107 4 -115 26 -133 26 -21 91 -23 98 -3 2 6 -10 8 -32 6 -59 -7 -65 6 -65
134 l0 114 50 0 c28 0 50 5 50 10 0 6 -22 10 -50 10 l-50 0 0 45 c0 33 -4 45
-15 45 -11 0 -15 -12 -15 -45z"/>
<path d="M1780 630 c0 -38 -2 -40 -30 -40 -27 0 -30 -3 -30 -30 0 -27 3 -30
30 -30 l30 0 0 -80 c0 -43 5 -90 11 -103 13 -30 48 -47 92 -47 44 0 56 10 46
38 -6 16 -16 22 -38 22 -40 0 -51 23 -51 104 l0 65 43 3 c37 3 42 6 45 30 3
25 0 27 -40 30 -42 3 -43 4 -46 41 -3 34 -6 37 -33 37 -27 0 -29 -2 -29 -40z"/>
<path d="M1204 589 c-42 -12 -91 -69 -100 -115 -9 -49 9 -104 46 -139 26 -25
40 -30 93 -33 74 -4 114 16 140 71 38 80 11 167 -63 205 -47 24 -67 25 -116
11z m85 -64 c37 -19 53 -63 40 -109 -11 -41 -33 -56 -83 -56 -86 0 -105 137
-22 170 29 12 33 12 65 -5z"/>
<path d="M1565 589 c-11 -7 -23 -17 -27 -23 -4 -6 -9 -4 -14 7 -4 11 -17 17
-35 17 l-29 0 0 -145 0 -145 29 0 29 0 4 94 c5 120 19 140 90 134 42 -4 47 -2
58 20 7 15 7 29 2 34 -15 15 -85 19 -107 7z"/>
<path d="M2390 589 c-43 -17 -60 -40 -60 -80 0 -48 33 -76 98 -84 75 -10 97
-29 67 -59 -20 -20 -71 -20 -105 -1 -34 20 -47 18 -60 -6 -14 -25 5 -43 64
-60 90 -25 176 17 176 86 0 52 -33 81 -103 90 -59 8 -83 24 -73 50 6 18 101
22 111 4 7 -11 45 17 45 33 0 14 -66 38 -102 37 -18 0 -44 -5 -58 -10z"/>
<path d="M2703 581 c-140 -65 -94 -281 60 -281 41 0 100 21 112 40 13 20 0 20
-41 -1 -76 -39 -178 0 -186 71 l-3 25 134 3 134 3 -6 35 c-16 98 -112 147
-204 105z m135 -28 c20 -12 52 -67 52 -88 0 -3 -57 -5 -126 -5 -125 0 -125 0
-119 23 24 83 118 117 193 70z"/>
<path d="M3185 593 c-65 -17 -100 -75 -93 -155 7 -71 51 -112 127 -121 85 -10
131 -54 117 -111 -22 -87 -178 -100 -216 -19 -17 36 -30 43 -30 15 0 -47 66
-92 135 -92 80 0 135 49 135 121 0 22 -10 41 -35 66 l-36 36 24 26 c50 54 60
106 31 163 -13 24 -14 36 -5 49 13 22 -2 34 -18 15 -10 -11 -17 -11 -49 0 -39
14 -54 15 -87 7z m108 -44 c37 -28 54 -88 37 -129 -39 -94 -160 -106 -205 -20
-28 54 -11 130 34 155 39 21 104 19 134 -6z"/>
<path d="M1980 490 c0 -108 11 -146 52 -174 32 -22 94 -20 134 5 l34 21 0 -21
c0 -17 6 -21 30 -21 l30 0 0 145 0 145 -30 0 -30 0 0 -67 c0 -122 -22 -163
-88 -163 -51 0 -67 30 -70 136 l-4 94 -29 0 -29 0 0 -100z"/>
<path d="M2990 445 c0 -90 4 -145 10 -145 6 0 10 55 10 145 0 90 -4 145 -10
145 -6 0 -10 -55 -10 -145z"/>
</g>
</svg>
