<?xml version="1.0" standalone="no"?>
<!DOCTYPE svg PUBLIC "-//W3C//DTD SVG 20010904//EN"
 "http://www.w3.org/TR/2001/REC-SVG-20010904/DTD/svg10.dtd">
<svg version="1.0" xmlns="http://www.w3.org/2000/svg"
 width="1000.000000pt" height="300.000000pt" viewBox="0 0 1000.000000 300.000000"
 preserveAspectRatio="xMidYMid meet">

<g transform="translate(0.000000,300.000000) scale(0.100000,-0.100000)"
fill="#000000" stroke="none">
<path d="M1869 2949 c-8 -5 -24 -9 -37 -9 -12 0 -30 -4 -40 -9 -28 -15 -89
-41 -97 -41 -15 0 -124 -83 -166 -127 -47 -49 -129 -176 -129 -200 0 -7 -4
-21 -9 -31 -5 -9 -15 -37 -23 -62 l-15 -45 -116 4 c-64 2 -210 0 -324 -4
l-208 -7 0 -1172 0 -1171 905 -5 c845 -5 978 -2 1022 21 10 5 25 9 33 9 8 0
23 4 33 9 28 15 89 41 97 41 22 0 162 105 225 170 91 92 178 234 206 335 27
97 28 137 31 936 l3 827 -244 7 c-135 4 -256 5 -270 1 -14 -3 -49 -3 -79 0
-44 5 -55 11 -65 32 -7 14 -12 34 -12 44 0 10 -4 26 -9 36 -5 9 -17 35 -27 57
-56 128 -187 258 -314 309 -25 10 -54 22 -65 26 -56 23 -279 36 -306 19z m277
-173 c70 -26 117 -55 172 -109 59 -57 120 -170 124 -227 l3 -35 -55 -8 c-136
-19 -268 -54 -360 -95 -43 -19 -47 -19 -90 0 -68 30 -95 40 -125 50 -69 21
-133 36 -185 42 -113 14 -113 14 -105 53 11 63 58 145 116 207 69 74 132 110
244 140 38 10 220 -2 261 -18z m-741 -456 c234 -16 387 -51 528 -121 l58 -28
62 28 c81 37 108 46 192 64 218 47 276 52 625 52 l285 0 0 -765 c0 -708 -2
-770 -18 -825 -10 -33 -23 -71 -29 -85 -6 -14 -15 -36 -21 -50 -27 -62 -103
-163 -175 -232 -85 -81 -172 -131 -296 -170 l-71 -23 -870 0 -870 0 -3 1074
c-2 853 0 1076 10 1083 18 11 424 10 593 -2z"/>
<path d="M2450 2039 c-138 -28 -241 -81 -329 -168 -79 -78 -90 -93 -118 -149
l-21 -43 -31 54 c-60 105 -168 202 -282 255 -53 24 -181 52 -238 52 -73 0
-192 -29 -267 -65 -130 -63 -254 -198 -304 -333 -42 -112 -46 -306 -8 -400 68
-170 182 -297 329 -365 111 -51 274 -65 389 -33 36 10 74 20 85 23 16 3 54
-32 170 -156 82 -89 154 -161 160 -161 5 0 77 72 159 160 82 88 151 160 152
160 2 0 43 -12 91 -26 283 -83 595 69 713 346 58 138 66 317 20 435 -78 198
-223 338 -405 392 -108 33 -182 39 -265 22z m-941 -110 c153 -25 308 -144 372
-284 89 -197 51 -414 -100 -566 -110 -110 -232 -156 -386 -146 -202 13 -373
143 -441 335 -28 79 -33 227 -10 303 54 179 209 319 390 355 80 16 97 16 175
3z m1110 0 c138 -24 263 -104 336 -217 58 -91 77 -150 83 -259 7 -151 -45
-280 -155 -384 -101 -94 -212 -139 -343 -139 -132 0 -248 47 -346 142 -163
156 -201 386 -98 596 59 120 207 230 348 258 80 16 97 16 175 3z m-611 -796
l22 -43 -51 0 -50 0 18 33 c21 38 35 59 38 55 1 -2 11 -22 23 -45z m97 -151
c22 -11 53 -34 70 -51 27 -29 28 -33 15 -56 -18 -28 -199 -215 -210 -215 -4 0
-55 52 -114 115 -94 100 -106 117 -96 134 14 28 72 70 117 87 53 20 167 13
218 -14z"/>
<path d="M1490 1738 c0 -2 7 -25 16 -51 19 -57 7 -105 -39 -155 -61 -64 -148
-65 -220 -1 l-44 38 -14 -42 c-8 -23 -14 -76 -13 -117 0 -62 5 -85 29 -133 33
-67 87 -120 154 -151 35 -16 65 -21 131 -21 66 0 96 5 131 21 66 31 121 84
155 151 25 51 29 68 28 143 0 67 -5 95 -23 132 -32 66 -92 125 -158 155 -49
23 -133 42 -133 31z"/>
<path d="M2470 1738 c0 -3 7 -19 15 -34 43 -83 -16 -198 -112 -219 -47 -10
-108 11 -146 50 l-34 35 -12 -28 c-7 -15 -15 -59 -18 -98 -10 -135 49 -243
169 -309 47 -27 62 -30 143 -30 76 0 97 4 139 25 164 84 226 273 144 437 -27
55 -95 118 -153 144 -42 19 -135 37 -135 27z"/>
</g>
</svg>
