<?xml version="1.0" standalone="no"?>
<!DOCTYPE svg PUBLIC "-//W3C//DTD SVG 20010904//EN"
 "http://www.w3.org/TR/2001/REC-SVG-20010904/DTD/svg10.dtd">
<svg version="1.0" xmlns="http://www.w3.org/2000/svg"
 width="1271.000000pt" height="282.000000pt" viewBox="0 0 1271.000000 282.000000"
 preserveAspectRatio="xMidYMid meet">

<g transform="translate(0.000000,282.000000) scale(0.100000,-0.100000)"
fill="#000000" stroke="none">
<path d="M12515 2496 c-308 -55 -603 -155 -797 -273 -66 -39 -65 -35 -48 -173
16 -125 47 -270 81 -379 30 -94 113 -274 147 -318 16 -22 17 -20 17 61 0 80 2
87 52 187 83 167 235 366 530 696 81 91 158 179 171 194 l23 29 -23 -1 c-13 0
-81 -11 -153 -23z"/>
<path d="M6142 1138 c3 -856 3 -863 24 -915 52 -125 151 -193 294 -201 43 -2
95 -1 114 2 l36 7 0 128 0 127 -59 -4 c-34 -2 -67 1 -80 8 -51 27 -51 18 -51
895 l0 815 -140 0 -141 0 3 -862z"/>
<path d="M8480 1015 l0 -985 140 0 140 0 0 335 0 335 73 0 72 -1 224 -334 225
-335 169 0 168 0 -54 78 c-30 42 -154 222 -276 400 l-223 323 243 302 c133
166 249 310 257 320 14 16 6 17 -159 16 l-174 0 -198 -255 -199 -254 -74 0
-74 0 0 520 0 520 -140 0 -140 0 0 -985z"/>
<path d="M180 1650 l0 -190 -90 0 -90 0 0 -125 0 -125 90 0 90 0 0 -372 c0
-283 4 -389 14 -440 32 -150 117 -264 240 -322 88 -42 153 -56 259 -56 135 0
127 -9 127 140 l0 127 -75 -5 c-102 -6 -158 11 -212 64 -70 70 -73 92 -73 506
l0 358 170 0 170 0 0 125 0 125 -170 0 -170 0 0 190 0 190 -140 0 -140 0 0
-190z"/>
<path d="M2340 1493 c-126 -19 -271 -71 -342 -122 -88 -62 -86 -46 -16 -165
35 -58 67 -106 71 -106 5 0 27 13 50 29 121 82 232 115 373 109 81 -3 98 -7
140 -34 61 -37 100 -100 113 -179 5 -33 7 -63 4 -67 -2 -5 -48 -8 -101 -8
-291 0 -546 -76 -672 -200 -173 -170 -170 -458 7 -620 95 -87 217 -130 368
-130 139 0 260 44 358 130 l47 42 0 -71 0 -71 135 0 136 0 -3 537 c-3 518 -4
540 -25 593 -71 189 -181 286 -368 325 -64 13 -214 18 -275 8z m395 -835 c-23
-194 -136 -360 -274 -400 -196 -57 -383 74 -342 238 16 63 42 98 98 130 96 57
217 81 406 83 l118 1 -6 -52z"/>
<path d="M5115 1484 c-38 -8 -113 -35 -165 -61 -175 -85 -303 -244 -362 -449
-29 -104 -32 -323 -5 -424 58 -218 214 -402 412 -489 132 -58 339 -78 487 -47
131 28 309 117 375 188 l22 23 -61 100 c-33 55 -63 104 -68 108 -4 4 -30 -12
-59 -36 -62 -54 -155 -101 -236 -122 -68 -17 -189 -19 -254 -4 -118 27 -235
115 -289 217 -28 53 -62 156 -62 189 0 10 101 13 514 13 l513 0 7 46 c19 139
-9 315 -70 441 -49 104 -159 216 -257 262 -125 59 -290 76 -442 45z m221 -235
c136 -24 242 -136 260 -273 l7 -46 -367 0 c-419 0 -389 -9 -336 97 67 133 201
220 361 232 8 0 42 -4 75 -10z"/>
<path d="M7306 1484 c-143 -32 -263 -93 -361 -186 -163 -152 -245 -357 -232
-583 7 -127 26 -196 83 -314 91 -185 277 -331 485 -381 113 -27 265 -27 378 0
221 53 420 219 510 425 62 140 79 342 41 491 -34 136 -91 236 -195 339 -101
102 -194 157 -325 195 -100 29 -287 36 -384 14z m336 -273 c173 -67 292 -233
305 -426 19 -290 -194 -525 -477 -525 -182 0 -339 95 -419 253 -142 281 -13
613 277 708 79 26 233 21 314 -10z"/>
<path d="M10120 1481 c-135 -29 -266 -91 -344 -162 -9 -8 110 -219 124 -219 4
0 35 19 69 41 159 106 394 131 511 55 48 -32 91 -113 97 -187 l6 -59 -101 0
c-220 0 -452 -50 -577 -125 -158 -95 -234 -236 -223 -413 7 -110 37 -180 110
-258 97 -103 225 -154 388 -154 142 0 246 37 355 125 l55 45 0 -70 0 -70 135
0 135 0 0 495 c0 413 -3 509 -16 573 -54 264 -243 403 -544 401 -52 0 -133 -8
-180 -18z m460 -814 c0 -103 -62 -249 -138 -325 -65 -66 -140 -96 -232 -96
-43 1 -90 7 -110 16 -119 51 -171 173 -117 278 56 112 210 166 480 169 l117 1
0 -43z"/>
<path d="M1528 1461 c-74 -24 -144 -69 -202 -131 l-46 -49 0 94 0 95 -140 0
-140 0 0 -720 0 -720 140 0 140 0 0 333 c0 357 6 427 46 546 62 187 182 293
331 293 37 0 80 -5 96 -11 l27 -11 0 144 0 143 -37 7 c-68 11 -157 5 -215 -13z"/>
<path d="M3152 1453 c3 -10 119 -310 258 -668 139 -357 261 -674 272 -702 l21
-53 133 0 133 0 19 53 c25 65 517 1345 527 1370 7 16 -4 17 -141 17 l-149 0
-195 -515 c-139 -369 -197 -511 -203 -498 -4 10 -92 241 -195 513 l-188 495
-148 3 c-138 2 -148 1 -144 -15z"/>
</g>
</svg>
