<?xml version="1.0" standalone="no"?>
<!DOCTYPE svg PUBLIC "-//W3C//DTD SVG 20010904//EN"
 "http://www.w3.org/TR/2001/REC-SVG-20010904/DTD/svg10.dtd">
<svg version="1.0" xmlns="http://www.w3.org/2000/svg"
 width="4693.000000pt" height="1577.000000pt" viewBox="0 0 4693.000000 1577.000000"
 preserveAspectRatio="xMidYMid meet">

<g transform="translate(0.000000,1577.000000) scale(0.100000,-0.100000)"
fill="#000000" stroke="none">
<path d="M10 14360 l0 -1410 3648 -3 c3407 -3 3653 -4 3732 -20 435 -88 790
-340 1004 -712 127 -220 186 -445 186 -704 0 -238 -41 -415 -145 -628 -141
-287 -372 -520 -658 -664 -86 -44 -239 -97 -357 -126 -71 -17 -258 -18 -3742
-20 l-3668 -3 0 -1410 0 -1410 4019 0 c2720 0 4052 -3 4122 -10 605 -61 1176
-382 1539 -865 227 -302 367 -636 426 -1020 23 -150 23 -469 0 -620 -98 -635
-446 -1180 -978 -1532 -326 -214 -684 -330 -1110 -358 -54 -4 -98 -11 -98 -16
0 -5 -1598 -9 -3960 -9 l-3960 0 0 -1410 0 -1410 4023 0 c2618 0 4080 4 4187
10 1233 76 2349 571 3224 1429 874 859 1392 1960 1497 3186 7 77 12 257 12
400 0 286 -11 451 -49 715 -117 819 -442 1607 -939 2275 -311 419 -749 845
-1157 1126 -48 33 -89 63 -92 68 -3 4 31 68 75 142 379 628 589 1397 589 2154
0 1426 -716 2754 -1916 3553 -643 428 -1381 667 -2171 702 -120 6 -1705 10
-3745 10 l-3538 0 0 -1410z"/>
<path d="M32155 15758 c-3 -7 -4 -647 -3 -1423 l3 -1410 3655 -6 c4019 -6
3683 0 4070 -65 698 -116 1353 -375 1950 -769 1218 -805 2035 -2099 2229
-3530 83 -610 58 -1214 -74 -1800 -175 -778 -521 -1483 -1034 -2110 -136 -166
-428 -465 -601 -614 -700 -604 -1555 -1009 -2450 -1160 -419 -71 -77 -65
-4110 -71 l-3635 -5 0 -1395 0 -1395 3500 -3 c2407 -2 3576 0 3745 8 986 44
1925 262 2815 655 195 86 578 282 765 391 329 192 758 492 1030 719 381 319
846 779 1116 1103 1568 1882 2160 4440 1583 6842 -425 1769 -1464 3345 -2929
4444 -1192 894 -2556 1413 -4075 1552 -249 22 -1299 31 -4595 38 -1554 4
-2853 9 -2888 12 -46 4 -63 2 -67 -8z"/>
<path d="M18595 9478 c-2725 -5349 -3950 -7752 -4691 -9195 l-145 -283 1578 0
1579 0 779 1523 c429 837 1527 2988 2440 4779 913 1792 1662 3257 1665 3258 3
0 774 -1509 1714 -3353 940 -1843 2038 -3994 2440 -4779 l731 -1428 1578 0
1577 0 -64 128 c-35 70 -372 728 -748 1462 -376 734 -2155 4223 -3953 7752
-1799 3530 -3272 6418 -3275 6418 -3 -1 -1445 -2827 -3205 -6282z"/>
</g>
</svg>
